<svg width="426" height="717" viewBox="0 0 426 717" fill="none" xmlns="http://www.w3.org/2000/svg">
<g filter="url(#filter0_d)">
<rect width="375" height="667" transform="translate(26 25)" fill="white"/>
<path d="M192.279 30.334C190.445 30.334 189.139 31.5879 189.139 33.3047V33.3164C189.139 34.9219 190.275 36.1055 191.898 36.1055C193.059 36.1055 193.797 35.5137 194.107 34.8457H194.225C194.225 34.9102 194.219 34.9746 194.219 35.0391C194.154 36.6562 193.586 37.9688 192.244 37.9688C191.5 37.9688 190.979 37.582 190.756 36.9902L190.738 36.9316H189.25L189.262 36.9961C189.531 38.291 190.691 39.2109 192.244 39.2109C194.371 39.2109 195.654 37.5234 195.654 34.6758V34.6641C195.654 31.6172 194.084 30.334 192.279 30.334ZM192.273 34.9453C191.312 34.9453 190.615 34.2422 190.615 33.2637V33.252C190.615 32.3086 191.359 31.5645 192.291 31.5645C193.229 31.5645 193.961 32.3203 193.961 33.2871V33.2988C193.961 34.2539 193.229 34.9453 192.273 34.9453ZM198.314 33.5215C198.854 33.5215 199.246 33.1113 199.246 32.5957C199.246 32.0742 198.854 31.6699 198.314 31.6699C197.781 31.6699 197.383 32.0742 197.383 32.5957C197.383 33.1113 197.781 33.5215 198.314 33.5215ZM198.314 37.8691C198.854 37.8691 199.246 37.4648 199.246 36.9434C199.246 36.4219 198.854 36.0176 198.314 36.0176C197.781 36.0176 197.383 36.4219 197.383 36.9434C197.383 37.4648 197.781 37.8691 198.314 37.8691ZM205.076 39H206.523V37.377H207.66V36.1289H206.523V30.5449H204.385C203.236 32.291 202.035 34.2363 200.939 36.1406V37.377H205.076V39ZM202.346 36.1641V36.0762C203.166 34.6406 204.145 33.0762 205.012 31.752H205.1V36.1641H202.346ZM211.164 39H212.676V30.5449H211.17L208.961 32.0977V33.5215L211.064 32.0332H211.164V39ZM217.756 39H219.338L220.041 36.8145H223.17L223.879 39H225.461L222.461 30.5449H220.756L217.756 39ZM221.559 32.1152H221.658L222.795 35.6484H220.422L221.559 32.1152ZM226.914 39H228.279V32.9883H228.379L230.723 39H231.754L234.098 32.9883H234.203V39H235.562V30.5449H233.828L231.291 37.0488H231.191L228.648 30.5449H226.914V39Z" fill="black"/>
<path opacity="0.35" fill-rule="evenodd" clip-rule="evenodd" d="M370.5 29.5H389.5C390.881 29.5 392 30.6193 392 32V38.5C392 39.8807 390.881 41 389.5 41H370.5C369.119 41 368 39.8807 368 38.5V32C368 30.6193 369.119 29.5 370.5 29.5ZM370.5 30.5C369.672 30.5 369 31.1716 369 32V38.5C369 39.3284 369.672 40 370.5 40H389.5C390.328 40 391 39.3284 391 38.5V32C391 31.1716 390.328 30.5 389.5 30.5H370.5Z" fill="black"/>
<path opacity="0.4" fill-rule="evenodd" clip-rule="evenodd" d="M393 32.7998C393.89 33.255 394.5 34.1813 394.5 35.2499C394.5 36.3186 393.89 37.2449 393 37.7001V32.7998Z" fill="black"/>
<path fill-rule="evenodd" clip-rule="evenodd" d="M371 31.5H389C389.552 31.5 390 31.9477 390 32.5V38C390 38.5523 389.552 39 389 39H371C370.448 39 370 38.5523 370 38V32.5C370 31.9477 370.448 31.5 371 31.5Z" fill="black"/>
<path d="M336.219 39.3H337.273V30.8449H336.225L333.975 32.4621V33.5754L336.125 32.0168H336.219V39.3ZM342.547 39.4992C344.416 39.4992 345.541 37.7941 345.541 35.0754V35.0637C345.541 32.3449 344.416 30.6457 342.547 30.6457C340.678 30.6457 339.564 32.3449 339.564 35.0637V35.0754C339.564 37.7941 340.678 39.4992 342.547 39.4992ZM342.547 38.5793C341.334 38.5793 340.625 37.2316 340.625 35.0754V35.0637C340.625 32.9074 341.334 31.5715 342.547 31.5715C343.76 31.5715 344.48 32.9074 344.48 35.0637V35.0754C344.48 37.2316 343.76 38.5793 342.547 38.5793ZM350.105 39.4992C351.975 39.4992 353.1 37.7941 353.1 35.0754V35.0637C353.1 32.3449 351.975 30.6457 350.105 30.6457C348.236 30.6457 347.123 32.3449 347.123 35.0637V35.0754C347.123 37.7941 348.236 39.4992 350.105 39.4992ZM350.105 38.5793C348.893 38.5793 348.184 37.2316 348.184 35.0754V35.0637C348.184 32.9074 348.893 31.5715 350.105 31.5715C351.318 31.5715 352.039 32.9074 352.039 35.0637V35.0754C352.039 37.2316 351.318 38.5793 350.105 38.5793ZM356.41 35.2922C357.488 35.2922 358.145 34.4133 358.145 33.0129V33.007C358.145 31.6066 357.488 30.7336 356.41 30.7336C355.332 30.7336 354.682 31.6066 354.682 33.007V33.0129C354.682 34.4133 355.332 35.2922 356.41 35.2922ZM357.043 39.3L362.797 30.8449H361.848L356.094 39.3H357.043ZM356.41 34.5949C355.83 34.5949 355.496 34.0031 355.496 33.0129V33.007C355.496 32.0168 355.83 31.4308 356.41 31.4308C356.99 31.4308 357.33 32.0168 357.33 33.007V33.0129C357.33 34.0031 356.99 34.5949 356.41 34.5949ZM362.469 39.4113C363.547 39.4113 364.203 38.5324 364.203 37.132V37.1262C364.203 35.7258 363.547 34.8527 362.469 34.8527C361.391 34.8527 360.74 35.7258 360.74 37.1262V37.132C360.74 38.5324 361.391 39.4113 362.469 39.4113ZM362.469 38.7141C361.889 38.7141 361.555 38.1223 361.555 37.132V37.1262C361.555 36.1359 361.889 35.55 362.469 35.55C363.049 35.55 363.389 36.1359 363.389 37.1262V37.132C363.389 38.1223 363.049 38.7141 362.469 38.7141Z" fill="black"/>
<path fill-rule="evenodd" clip-rule="evenodd" d="M45.5 30H46.5C47.0523 30 47.5 30.4477 47.5 31V39C47.5 39.5523 47.0523 40 46.5 40H45.5C44.9477 40 44.5 39.5523 44.5 39V31C44.5 30.4477 44.9477 30 45.5 30Z" fill="black"/>
<path d="M42 32H41C40.4477 32 40 32.4477 40 33V39C40 39.5523 40.4477 40 41 40H42C42.5523 40 43 39.5523 43 39V33C43 32.4477 42.5523 32 42 32Z" fill="black"/>
<path d="M36.5 34H37.5C38.0523 34 38.5 34.4477 38.5 35V39C38.5 39.5523 38.0523 40 37.5 40H36.5C35.9477 40 35.5 39.5523 35.5 39V35C35.5 34.4477 35.9477 34 36.5 34Z" fill="black"/>
<path d="M32 35.5H33C33.5523 35.5 34 35.9477 34 36.5V39C34 39.5523 33.5523 40 33 40H32C31.4477 40 31 39.5523 31 39V36.5C31 35.9477 31.4477 35.5 32 35.5Z" fill="black"/>
<path d="M55.0781 39H56.1328V35.6543H58.2129L60.0234 39H61.2598L59.3027 35.4902C60.3633 35.1562 61.002 34.2422 61.002 33.0703V33.0586C61.002 31.541 59.9355 30.5449 58.3066 30.5449H55.0781V39ZM56.1328 34.7168V31.4824H58.166C59.2559 31.4824 59.9121 32.0859 59.9121 33.0938V33.1055C59.9121 34.1367 59.2969 34.7168 58.2129 34.7168H56.1328ZM65.6395 39.1992C67.5262 39.1992 68.7625 38.2148 68.7625 36.6328V36.627C68.7625 35.4082 68.0652 34.6992 66.3016 34.3066L65.3641 34.0957C64.2156 33.8438 63.7527 33.3867 63.7527 32.7129V32.707C63.7527 31.8223 64.5672 31.3242 65.6219 31.3184C66.7234 31.3125 67.4266 31.8633 67.5437 32.6074L67.5555 32.6836H68.6102L68.6043 32.6016C68.5164 31.3418 67.3387 30.3457 65.6512 30.3457C63.9051 30.3457 62.6805 31.3359 62.6746 32.7363V32.7422C62.6746 33.9668 63.407 34.7461 65.1004 35.1211L66.0379 35.3262C67.198 35.584 67.6844 36.0645 67.6844 36.7676V36.7734C67.6844 37.6348 66.8465 38.2266 65.698 38.2266C64.4793 38.2266 63.6004 37.6934 63.5242 36.8496L63.5184 36.7852H62.4637L62.4695 36.8496C62.5926 38.2266 63.7879 39.1992 65.6395 39.1992ZM73.2418 39.1992C75.1285 39.1992 76.3648 38.2148 76.3648 36.6328V36.627C76.3648 35.4082 75.6676 34.6992 73.9039 34.3066L72.9664 34.0957C71.818 33.8438 71.3551 33.3867 71.3551 32.7129V32.707C71.3551 31.8223 72.1695 31.3242 73.2242 31.3184C74.3258 31.3125 75.0289 31.8633 75.1461 32.6074L75.1578 32.6836H76.2125L76.2066 32.6016C76.1187 31.3418 74.941 30.3457 73.2535 30.3457C71.5074 30.3457 70.2828 31.3359 70.277 32.7363V32.7422C70.277 33.9668 71.0094 34.7461 72.7027 35.1211L73.6402 35.3262C74.8004 35.584 75.2867 36.0645 75.2867 36.7676V36.7734C75.2867 37.6348 74.4488 38.2266 73.3004 38.2266C72.0816 38.2266 71.2027 37.6934 71.1266 36.8496L71.1207 36.7852H70.066L70.0719 36.8496C70.1949 38.2266 71.3902 39.1992 73.2418 39.1992ZM80.5277 39.1113C82.0453 39.1113 82.8949 38.2969 83.1527 37.1543L83.1645 37.0898L82.1566 37.0957L82.1449 37.1309C81.9105 37.834 81.3715 38.209 80.5219 38.209C79.3969 38.209 78.6703 37.2773 78.6703 35.8242V35.8125C78.6703 34.3887 79.3852 33.4746 80.5219 33.4746C81.4301 33.4746 81.9926 33.9785 82.1508 34.5996L82.1566 34.6172H83.1703L83.1645 34.582C82.977 33.457 82.057 32.5723 80.5219 32.5723C78.7523 32.5723 77.6273 33.8496 77.6273 35.8125V35.8242C77.6273 37.8281 78.7582 39.1113 80.5277 39.1113ZM84.6672 39H85.6867V35.2617C85.6867 34.1543 86.3254 33.4746 87.3332 33.4746C88.341 33.4746 88.8098 34.0195 88.8098 35.1562V39H89.8293V34.9102C89.8293 33.4102 89.0383 32.5723 87.6203 32.5723C86.6887 32.5723 86.0969 32.9648 85.7805 33.6328H85.6867V30.1758H84.6672V39ZM94.2207 39.1113C96.0195 39.1113 97.1328 37.8691 97.1328 35.8477V35.8359C97.1328 33.8086 96.0195 32.5723 94.2207 32.5723C92.4219 32.5723 91.3086 33.8086 91.3086 35.8359V35.8477C91.3086 37.8691 92.4219 39.1113 94.2207 39.1113ZM94.2207 38.209C93.0254 38.209 92.3516 37.3359 92.3516 35.8477V35.8359C92.3516 34.3418 93.0254 33.4746 94.2207 33.4746C95.416 33.4746 96.0898 34.3418 96.0898 35.8359V35.8477C96.0898 37.3359 95.416 38.209 94.2207 38.209ZM101.261 39.1113C103.059 39.1113 104.173 37.8691 104.173 35.8477V35.8359C104.173 33.8086 103.059 32.5723 101.261 32.5723C99.4617 32.5723 98.3484 33.8086 98.3484 35.8359V35.8477C98.3484 37.8691 99.4617 39.1113 101.261 39.1113ZM101.261 38.209C100.065 38.209 99.3914 37.3359 99.3914 35.8477V35.8359C99.3914 34.3418 100.065 33.4746 101.261 33.4746C102.456 33.4746 103.13 34.3418 103.13 35.8359V35.8477C103.13 37.3359 102.456 38.209 101.261 38.209ZM105.763 39H106.783V30.1758H105.763V39Z" fill="black"/>
<path fill-rule="evenodd" clip-rule="evenodd" d="M125.983 32.5229C124.072 30.8906 121.657 30 119.133 30C116.601 30 114.18 30.8959 112.266 32.5371L112.104 32.6765C111.972 32.7892 111.965 32.9895 112.087 33.1118L113.214 34.2356C113.324 34.3447 113.498 34.3521 113.617 34.2527L113.756 34.1354C115.263 32.8694 117.155 32.1804 119.133 32.1804C121.104 32.1804 122.989 32.8647 124.494 34.1228L124.634 34.2395C124.752 34.3385 124.926 34.3308 125.036 34.2219L126.163 33.098C126.285 32.9756 126.278 32.7749 126.146 32.6623L125.983 32.5229ZM119.133 33.4698C120.724 33.4698 122.251 33.9975 123.495 34.9749L123.671 35.113C123.811 35.2231 123.824 35.4306 123.697 35.5564L122.567 36.6841C122.462 36.7884 122.297 36.8003 122.178 36.7122L122.04 36.6098C121.2 35.9852 120.186 35.6501 119.133 35.6501C118.073 35.6501 117.053 35.9893 116.21 36.6211L116.072 36.7245C115.954 36.8133 115.787 36.8016 115.683 36.697L114.552 35.5698C114.426 35.4442 114.438 35.2373 114.578 35.1269L114.753 34.9887C116 34.0027 117.534 33.4698 119.133 33.4698ZM119.133 36.9396C119.772 36.9396 120.394 37.1076 120.941 37.4281L121.163 37.5579C121.331 37.6563 121.361 37.8867 121.223 38.0242L119.329 39.913C119.212 40.029 119.024 40.029 118.907 39.913L117.026 38.0363C116.888 37.8994 116.917 37.6702 117.084 37.5711L117.303 37.4406C117.856 37.1121 118.485 36.9396 119.133 36.9396Z" fill="black"/>
<path d="M62 335C62 332.2 62 330.8 62.545 329.73C63.0243 328.789 63.7892 328.024 64.73 327.545C65.7996 327 67.1997 327 70 327H357C359.8 327 361.2 327 362.27 327.545C363.211 328.024 363.976 328.789 364.455 329.73C365 330.8 365 332.2 365 335V355C365 357.8 365 359.2 364.455 360.27C363.976 361.211 363.211 361.976 362.27 362.455C361.2 363 359.8 363 357 363H70C67.1997 363 65.7996 363 64.73 362.455C63.7892 361.976 63.0243 361.211 62.545 360.27C62 359.2 62 357.8 62 355V335Z" fill="#C4C4C4"/>
<path d="M62 269C62 266.2 62 264.8 62.545 263.73C63.0243 262.789 63.7892 262.024 64.73 261.545C65.7996 261 67.1997 261 70 261H357C359.8 261 361.2 261 362.27 261.545C363.211 262.024 363.976 262.789 364.455 263.73C365 264.8 365 266.2 365 269V289C365 291.8 365 293.2 364.455 294.27C363.976 295.211 363.211 295.976 362.27 296.455C361.2 297 359.8 297 357 297H70C67.1997 297 65.7996 297 64.73 296.455C63.7892 295.976 63.0243 295.211 62.545 294.27C62 293.2 62 291.8 62 289V269Z" fill="#C4C4C4"/>
<rect x="96" y="532" width="235" height="110" rx="5" fill="#C4C4C4"/>
<path d="M130.076 166H135.385V156.719H139.727L144.455 166H150.467L145.123 155.928C148.023 154.785 149.711 151.99 149.711 148.738V148.703C149.711 143.711 146.406 140.635 140.641 140.635H130.076V166ZM135.385 152.852V144.783H139.99C142.645 144.783 144.279 146.365 144.279 148.809V148.844C144.279 151.34 142.715 152.852 140.061 152.852H135.385ZM164.093 166.65C170.421 166.65 174.323 163.469 174.323 158.441V158.424C174.323 154.469 171.985 152.324 166.624 151.217L163.934 150.672C160.946 150.057 159.716 149.072 159.716 147.42V147.402C159.716 145.504 161.456 144.309 164.075 144.291C166.747 144.291 168.505 145.557 168.804 147.367L168.839 147.578H173.831L173.813 147.35C173.479 143.113 169.999 139.984 164.075 139.984C158.45 139.984 154.407 143.096 154.407 147.807V147.824C154.407 151.674 156.675 154.135 161.948 155.207L164.62 155.752C167.766 156.402 169.014 157.334 169.014 159.004V159.021C169.014 160.973 167.063 162.326 164.233 162.326C161.263 162.326 159.206 161.043 159.013 159.145L158.995 158.969H153.88L153.897 159.25C154.196 163.75 158.028 166.65 164.093 166.65ZM188.371 166.65C194.699 166.65 198.601 163.469 198.601 158.441V158.424C198.601 154.469 196.263 152.324 190.902 151.217L188.213 150.672C185.224 150.057 183.994 149.072 183.994 147.42V147.402C183.994 145.504 185.734 144.309 188.353 144.291C191.025 144.291 192.783 145.557 193.082 147.367L193.117 147.578H198.109L198.091 147.35C197.757 143.113 194.277 139.984 188.353 139.984C182.728 139.984 178.685 143.096 178.685 147.807V147.824C178.685 151.674 180.953 154.135 186.226 155.207L188.898 155.752C192.045 156.402 193.293 157.334 193.293 159.004V159.021C193.293 160.973 191.341 162.326 188.511 162.326C185.541 162.326 183.484 161.043 183.291 159.145L183.273 158.969H178.158L178.175 159.25C178.474 163.75 182.306 166.65 188.371 166.65ZM211.594 166.404C216.639 166.404 219.662 163.697 220.19 159.479L220.207 159.373H215.461L215.426 159.443C214.969 161.377 213.721 162.379 211.612 162.379C208.87 162.379 207.34 160.217 207.34 156.297V156.262C207.34 152.395 208.852 150.25 211.612 150.25C213.809 150.25 215.092 151.48 215.426 153.361L215.444 153.396H220.225V153.344C219.768 149.02 216.727 146.225 211.594 146.225C205.53 146.225 202.12 149.898 202.12 156.262V156.297C202.12 162.73 205.547 166.404 211.594 166.404ZM224.359 166H229.491V154.803C229.491 152.184 230.933 150.479 233.306 150.479C235.732 150.479 236.857 151.92 236.857 154.645V166H241.989V153.484C241.989 148.861 239.669 146.225 235.363 146.225C232.603 146.225 230.687 147.543 229.808 149.635H229.491V139.246H224.359V166ZM255.51 166.404C261.469 166.404 265.055 162.643 265.055 156.332V156.297C265.055 150.039 261.416 146.225 255.51 146.225C249.604 146.225 245.965 150.057 245.965 156.297V156.332C245.965 162.625 249.551 166.404 255.51 166.404ZM255.51 162.379C252.768 162.379 251.221 160.146 251.221 156.332V156.297C251.221 152.518 252.785 150.25 255.51 150.25C258.217 150.25 259.799 152.518 259.799 156.297V156.332C259.799 160.146 258.234 162.379 255.51 162.379ZM277.784 166.404C283.743 166.404 287.329 162.643 287.329 156.332V156.297C287.329 150.039 283.69 146.225 277.784 146.225C271.878 146.225 268.239 150.057 268.239 156.297V156.332C268.239 162.625 271.825 166.404 277.784 166.404ZM277.784 162.379C275.042 162.379 273.495 160.146 273.495 156.332V156.297C273.495 152.518 275.059 150.25 277.784 150.25C280.491 150.25 282.073 152.518 282.073 156.297V156.332C282.073 160.146 280.509 162.379 277.784 162.379ZM291.638 166H296.771V139.246H291.638V166Z" fill="black"/>
<rect x="135" y="423" width="156" height="42" rx="5" fill="#C4C4C4"/>
<line x1="318.5" y1="152.5" x2="380.5" y2="152.5" stroke="#FFA800" stroke-linecap="round"/>
<line x1="212.5" y1="53.5" x2="212.5" y2="131.5" stroke="#FFA800" stroke-linecap="round"/>
<line x1="212.5" y1="177.5" x2="212.5" y2="255.5" stroke="#FFA800" stroke-linecap="round"/>
<path d="M333.924 144H335.693V135.545H333.93L331.744 137.062V138.656L333.818 137.215H333.924V144ZM341.198 144.217C343.29 144.217 344.555 142.506 344.555 139.775V139.764C344.555 137.027 343.29 135.328 341.198 135.328C339.112 135.328 337.841 137.027 337.841 139.764V139.775C337.841 142.506 339.112 144.217 341.198 144.217ZM341.198 142.816C340.202 142.816 339.634 141.686 339.634 139.775V139.764C339.634 137.848 340.202 136.729 341.198 136.729C342.2 136.729 342.768 137.848 342.768 139.764V139.775C342.768 141.686 342.2 142.816 341.198 142.816ZM348.179 144H349.949V135.545H348.185L346 137.062V138.656L348.074 137.215H348.179V144ZM355.245 146.139H356.956V142.969H357.062C357.39 143.672 358.111 144.1 358.995 144.1C360.63 144.1 361.614 142.852 361.614 140.777V140.766C361.614 138.709 360.607 137.443 358.995 137.443C358.081 137.443 357.396 137.854 357.062 138.545H356.956V137.549H355.245V146.139ZM358.409 142.682C357.513 142.682 356.939 141.961 356.939 140.777V140.766C356.939 139.582 357.507 138.861 358.409 138.861C359.318 138.861 359.874 139.582 359.874 140.766V140.777C359.874 141.961 359.312 142.682 358.409 142.682ZM362.145 144H363.949L365.15 141.867H365.256L366.463 144H368.355L366.311 140.736L368.344 137.549H366.48L365.338 139.688H365.232L364.09 137.549H362.127L364.166 140.807L362.145 144Z" fill="#FFA800"/>
<line x1="46.5" y1="152.5" x2="108.5" y2="152.5" stroke="#FFA800" stroke-linecap="round"/>
<path d="M128.477 190.139H131.723V188.879H130.117V180.342H131.723V179.082H128.477V190.139ZM135.171 188H136.94V181.004H139.477V179.545H132.634V181.004H135.171V188ZM141.578 180.559C142.105 180.559 142.539 180.137 142.539 179.609C142.539 179.076 142.105 178.654 141.578 178.654C141.05 178.654 140.611 179.076 140.611 179.609C140.611 180.137 141.05 180.559 141.578 180.559ZM140.716 188H142.427V181.549H140.716V188ZM146.778 188.023C147.106 188.023 147.422 187.988 147.633 187.947V186.676C147.469 186.693 147.352 186.705 147.129 186.705C146.549 186.705 146.303 186.447 146.303 185.867V182.838H147.633V181.549H146.303V180.008H144.575V181.549H143.579V182.838H144.575V186.26C144.575 187.514 145.207 188.023 146.778 188.023ZM149.066 188H150.777V179.082H149.066V188ZM155.332 188.135C157.219 188.135 158.051 187.045 158.25 186.236L158.262 186.178H156.668L156.65 186.213C156.533 186.459 156.117 186.857 155.367 186.857C154.459 186.857 153.891 186.242 153.873 185.182H158.314V184.648C158.314 182.697 157.143 181.408 155.262 181.408C153.381 181.408 152.18 182.727 152.18 184.777V184.783C152.18 186.852 153.369 188.135 155.332 188.135ZM155.291 182.691C156.035 182.691 156.568 183.172 156.674 184.109H153.891C153.996 183.195 154.547 182.691 155.291 182.691ZM162.483 190.139V179.082H159.237V180.342H160.837V188.879H159.237V190.139H162.483ZM131.049 204.217C133.158 204.217 134.459 203.156 134.459 201.48V201.475C134.459 200.156 133.68 199.441 131.893 199.072L130.996 198.891C130 198.686 129.59 198.357 129.59 197.807V197.801C129.59 197.168 130.17 196.77 131.043 196.764C131.934 196.764 132.52 197.186 132.619 197.789L132.631 197.859H134.295L134.289 197.783C134.178 196.371 133.018 195.328 131.043 195.328C129.168 195.328 127.82 196.365 127.82 197.936V197.941C127.82 199.225 128.576 200.045 130.334 200.402L131.225 200.584C132.273 200.801 132.689 201.111 132.689 201.668V201.674C132.689 202.324 132.039 202.775 131.096 202.775C130.105 202.775 129.42 202.348 129.355 201.715L129.35 201.656H127.645L127.65 201.75C127.75 203.25 129.027 204.217 131.049 204.217ZM136.085 204H137.854V200.672H141.294V199.271H137.854V197.004H141.622V195.545H136.085V204ZM146.25 204H148.02V201.334H149.737C151.518 201.334 152.707 200.186 152.707 198.445V198.434C152.707 196.693 151.518 195.545 149.737 195.545H146.25V204ZM149.303 196.945C150.317 196.945 150.914 197.479 150.914 198.439V198.451C150.914 199.412 150.317 199.951 149.303 199.951H148.02V196.945H149.303ZM154.116 204H155.827V200.391C155.827 199.477 156.443 198.92 157.415 198.92C157.679 198.92 157.943 198.961 158.2 199.02V197.525C158.03 197.479 157.79 197.443 157.562 197.443C156.724 197.443 156.138 197.854 155.933 198.551H155.827V197.549H154.116V204ZM162.006 204.135C163.992 204.135 165.188 202.881 165.188 200.777V200.766C165.188 198.68 163.975 197.408 162.006 197.408C160.037 197.408 158.824 198.686 158.824 200.766V200.777C158.824 202.875 160.02 204.135 162.006 204.135ZM162.006 202.793C161.092 202.793 160.576 202.049 160.576 200.777V200.766C160.576 199.506 161.098 198.75 162.006 198.75C162.908 198.75 163.436 199.506 163.436 200.766V200.777C163.436 202.049 162.914 202.793 162.006 202.793ZM171.796 204H173.566V197.004H176.103V195.545H169.259V197.004H171.796V204ZM179.17 204.135C181.057 204.135 181.889 203.045 182.088 202.236L182.1 202.178H180.506L180.489 202.213C180.371 202.459 179.955 202.857 179.205 202.857C178.297 202.857 177.729 202.242 177.711 201.182H182.153V200.648C182.153 198.697 180.981 197.408 179.1 197.408C177.219 197.408 176.018 198.727 176.018 200.777V200.783C176.018 202.852 177.207 204.135 179.17 204.135ZM179.129 198.691C179.873 198.691 180.407 199.172 180.512 200.109H177.729C177.834 199.195 178.385 198.691 179.129 198.691ZM182.765 204H184.57L185.771 201.867H185.876L187.083 204H188.976L186.931 200.736L188.964 197.549H187.101L185.958 199.688H185.853L184.71 197.549H182.747L184.786 200.807L182.765 204ZM192.834 204.023C193.162 204.023 193.479 203.988 193.689 203.947V202.676C193.525 202.693 193.408 202.705 193.186 202.705C192.605 202.705 192.359 202.447 192.359 201.867V198.838H193.689V197.549H192.359V196.008H190.631V197.549H189.635V198.838H190.631V202.26C190.631 203.514 191.264 204.023 192.834 204.023ZM131.014 220.188C132.988 220.188 134.307 219.15 134.307 217.615V217.604C134.307 216.455 133.486 215.729 132.227 215.611V215.576C133.217 215.371 133.99 214.686 133.99 213.631V213.619C133.99 212.271 132.818 211.357 131.002 211.357C129.227 211.357 128.037 212.342 127.914 213.854L127.908 213.924H129.537L129.543 213.871C129.613 213.168 130.17 212.717 131.002 212.717C131.834 212.717 132.32 213.15 132.32 213.854V213.865C132.32 214.551 131.746 215.02 130.855 215.02H129.912V216.279H130.879C131.904 216.279 132.508 216.725 132.508 217.533V217.545C132.508 218.26 131.916 218.764 131.014 218.764C130.1 218.764 129.496 218.295 129.42 217.639L129.414 217.574H127.721L127.727 217.65C127.844 219.162 129.104 220.188 131.014 220.188ZM139.143 220.217C141.048 220.217 142.384 218.945 142.384 217.217V217.205C142.384 215.605 141.27 214.434 139.624 214.434C138.458 214.434 137.749 215.014 137.444 215.67H137.327C137.327 215.605 137.327 215.541 137.333 215.477C137.397 213.941 137.93 212.74 139.155 212.74C139.841 212.74 140.321 213.098 140.52 213.625L140.544 213.678H142.272L142.261 213.619C142.003 212.295 140.784 211.328 139.149 211.328C136.987 211.328 135.651 213.01 135.651 215.84V215.852C135.651 218.828 137.18 220.217 139.143 220.217ZM137.591 217.24V217.234C137.591 216.361 138.27 215.734 139.143 215.734C140.028 215.734 140.673 216.379 140.673 217.264V217.275C140.673 218.143 139.987 218.816 139.132 218.816C138.27 218.816 137.591 218.131 137.591 217.24ZM143.927 222.139H145.638V218.969H145.744C146.072 219.672 146.793 220.1 147.677 220.1C149.312 220.1 150.296 218.852 150.296 216.777V216.766C150.296 214.709 149.289 213.443 147.677 213.443C146.763 213.443 146.078 213.854 145.744 214.545H145.638V213.549H143.927V222.139ZM147.091 218.682C146.195 218.682 145.621 217.961 145.621 216.777V216.766C145.621 215.582 146.189 214.861 147.091 214.861C148 214.861 148.556 215.582 148.556 216.766V216.777C148.556 217.961 147.994 218.682 147.091 218.682ZM154.325 220.023C154.653 220.023 154.969 219.988 155.18 219.947V218.676C155.016 218.693 154.899 218.705 154.676 218.705C154.096 218.705 153.85 218.447 153.85 217.867V214.838H155.18V213.549H153.85V212.008H152.121V213.549H151.125V214.838H152.121V218.26C152.121 219.514 152.754 220.023 154.325 220.023ZM128.025 236H131.822C133.627 236 134.746 235.068 134.746 233.586V233.574C134.746 232.49 133.932 231.652 132.812 231.564V231.459C133.68 231.33 134.342 230.551 134.342 229.66V229.648C134.342 228.348 133.363 227.545 131.723 227.545H128.025V236ZM131.271 228.857C132.115 228.857 132.602 229.268 132.602 229.953V229.965C132.602 230.662 132.08 231.061 131.125 231.061H129.795V228.857H131.271ZM131.33 232.227C132.373 232.227 132.941 232.648 132.941 233.434V233.445C132.941 234.248 132.391 234.682 131.371 234.682H129.795V232.227H131.33ZM138.991 236.135C140.977 236.135 142.173 234.881 142.173 232.777V232.766C142.173 230.68 140.96 229.408 138.991 229.408C137.022 229.408 135.809 230.686 135.809 232.766V232.777C135.809 234.875 137.005 236.135 138.991 236.135ZM138.991 234.793C138.077 234.793 137.561 234.049 137.561 232.777V232.766C137.561 231.506 138.083 230.75 138.991 230.75C139.893 230.75 140.421 231.506 140.421 232.766V232.777C140.421 234.049 139.899 234.793 138.991 234.793ZM143.576 236H145.287V227.082H143.576V236ZM149.309 236.1C150.217 236.1 150.903 235.695 151.237 234.998H151.342V236H153.053V227.082H151.342V230.58H151.237C150.914 229.877 150.194 229.443 149.309 229.443C147.674 229.443 146.69 230.691 146.69 232.766V232.777C146.69 234.84 147.698 236.1 149.309 236.1ZM149.889 234.682C148.987 234.682 148.43 233.967 148.43 232.777V232.766C148.43 231.588 148.987 230.861 149.889 230.861C150.791 230.861 151.36 231.588 151.36 232.771V232.783C151.36 233.967 150.797 234.682 149.889 234.682ZM128.025 252H131.822C133.627 252 134.746 251.068 134.746 249.586V249.574C134.746 248.49 133.932 247.652 132.812 247.564V247.459C133.68 247.33 134.342 246.551 134.342 245.66V245.648C134.342 244.348 133.363 243.545 131.723 243.545H128.025V252ZM131.271 244.857C132.115 244.857 132.602 245.268 132.602 245.953V245.965C132.602 246.662 132.08 247.061 131.125 247.061H129.795V244.857H131.271ZM131.33 248.227C132.373 248.227 132.941 248.648 132.941 249.434V249.445C132.941 250.248 132.391 250.682 131.371 250.682H129.795V248.227H131.33ZM136.184 252H137.895V243.082H136.184V252ZM141.373 252.1C142.216 252.1 142.896 251.742 143.224 251.145H143.33V252H145.017V247.594C145.017 246.217 144.05 245.408 142.339 245.408C140.716 245.408 139.65 246.158 139.515 247.289L139.509 247.342H141.091L141.103 247.318C141.238 246.938 141.63 246.721 142.246 246.721C142.949 246.721 143.33 247.037 143.33 247.594V248.127L141.771 248.221C140.166 248.314 139.269 248.994 139.269 250.154V250.166C139.269 251.338 140.142 252.1 141.373 252.1ZM140.939 250.061V250.049C140.939 249.58 141.296 249.305 142.029 249.258L143.33 249.176V249.65C143.33 250.33 142.738 250.852 141.947 250.852C141.355 250.852 140.939 250.553 140.939 250.061ZM149.485 252.135C151.166 252.135 152.174 251.232 152.35 249.826L152.356 249.791H150.774L150.762 249.814C150.61 250.459 150.194 250.793 149.491 250.793C148.577 250.793 148.067 250.072 148.067 248.766V248.754C148.067 247.465 148.571 246.75 149.491 246.75C150.223 246.75 150.651 247.16 150.762 247.787L150.768 247.799H152.362V247.781C152.209 246.34 151.196 245.408 149.485 245.408C147.463 245.408 146.327 246.633 146.327 248.754V248.766C146.327 250.91 147.469 252.135 149.485 252.135ZM153.706 252H155.417V249.838L155.886 249.34L157.767 252H159.788L157.14 248.285L159.618 245.549H157.679L155.523 248.098H155.417V243.082H153.706V252Z" fill="#FFA800"/>
<path d="M224.166 97.1875C226.199 97.1875 227.6 96.1738 227.6 94.709V94.6973C227.6 93.5957 226.773 92.7754 225.625 92.5527V92.5176C226.609 92.2715 227.289 91.5625 227.289 90.6426V90.6309C227.289 89.3184 226 88.3574 224.166 88.3574C222.326 88.3574 221.043 89.3184 221.043 90.6309V90.6426C221.043 91.5625 221.717 92.2773 222.707 92.5176V92.5527C221.553 92.7812 220.732 93.5957 220.732 94.6973V94.709C220.732 96.1738 222.133 97.1875 224.166 97.1875ZM224.166 91.9844C223.352 91.9844 222.789 91.5039 222.789 90.8125V90.8008C222.789 90.1094 223.357 89.6348 224.166 89.6348C224.969 89.6348 225.537 90.1094 225.537 90.8008V90.8125C225.537 91.5039 224.975 91.9844 224.166 91.9844ZM224.166 95.8984C223.234 95.8984 222.578 95.3535 222.578 94.5918V94.5801C222.578 93.8184 223.229 93.2676 224.166 93.2676C225.104 93.2676 225.748 93.8184 225.748 94.5801V94.5918C225.748 95.3535 225.092 95.8984 224.166 95.8984ZM232.331 97.2168C234.423 97.2168 235.688 95.5059 235.688 92.7754V92.7637C235.688 90.0273 234.423 88.3281 232.331 88.3281C230.245 88.3281 228.973 90.0273 228.973 92.7637V92.7754C228.973 95.5059 230.245 97.2168 232.331 97.2168ZM232.331 95.8164C231.335 95.8164 230.766 94.6855 230.766 92.7754V92.7637C230.766 90.8477 231.335 89.7285 232.331 89.7285C233.333 89.7285 233.901 90.8477 233.901 92.7637V92.7754C233.901 94.6855 233.333 95.8164 232.331 95.8164ZM240.288 99.1387H241.998V95.9688H242.104C242.432 96.6719 243.153 97.0996 244.038 97.0996C245.672 97.0996 246.657 95.8516 246.657 93.7773V93.7656C246.657 91.709 245.649 90.4434 244.038 90.4434C243.123 90.4434 242.438 90.8535 242.104 91.5449H241.998V90.5488H240.288V99.1387ZM243.452 95.6816C242.555 95.6816 241.981 94.9609 241.981 93.7773V93.7656C241.981 92.582 242.549 91.8613 243.452 91.8613C244.36 91.8613 244.916 92.582 244.916 93.7656V93.7773C244.916 94.9609 244.354 95.6816 243.452 95.6816ZM247.187 97H248.991L250.193 94.8672H250.298L251.505 97H253.398L251.353 93.7363L253.386 90.5488H251.523L250.38 92.6875H250.275L249.132 90.5488H247.169L249.208 93.8066L247.187 97Z" fill="#FFA800"/>
</g>
<defs>
<filter id="filter0_d" x="0" y="0" width="426" height="717" filterUnits="userSpaceOnUse" color-interpolation-filters="sRGB">
<feFlood flood-opacity="0" result="BackgroundImageFix"/>
<feColorMatrix in="SourceAlpha" type="matrix" values="0 0 0 0 0 0 0 0 0 0 0 0 0 0 0 0 0 0 127 0"/>
<feMorphology radius="5" operator="dilate" in="SourceAlpha" result="effect1_dropShadow"/>
<feOffset/>
<feGaussianBlur stdDeviation="10"/>
<feColorMatrix type="matrix" values="0 0 0 0 0 0 0 0 0 0 0 0 0 0 0 0 0 0 0.15 0"/>
<feBlend mode="normal" in2="BackgroundImageFix" result="effect1_dropShadow"/>
<feBlend mode="normal" in="SourceGraphic" in2="effect1_dropShadow" result="shape"/>
</filter>
</defs>
</svg>
